<?xml version="1.0" encoding="utf-8"?>
<!-- Generator: Adobe Illustrator 19.2.1, SVG Export Plug-In . SVG Version: 6.00 Build 0)  -->
<svg version="1.1" id="layer" xmlns="http://www.w3.org/2000/svg" xmlns:xlink="http://www.w3.org/1999/xlink" x="0px" y="0px"
	 viewBox="0 0 652 652" style="enable-background:new 0 0 652 652;" xml:space="preserve">
<style type="text/css">
	.st0{fill:#252E5D;}
</style>
<path class="st0" d="M200.8,376.7l-36.5-40.8h-14.8v40.8h-16.4V274.3h48.2c10.5,0,19,2.8,25.4,8.5c6.5,5.7,9.7,13.1,9.7,22.4
	c0,8.8-2.9,15.9-8.8,21.5c-5.9,5.6-13.7,8.6-23.5,9.1l37,41H200.8z M181.2,321c5.6,0,10.1-1.5,13.6-4.4c3.4-2.8,5.4-7.1,5.2-11.5
	c0.1-4.5-1.8-8.8-5.2-11.6c-3.5-2.9-8-4.4-13.6-4.4h-31.8V321H181.2z M317.3,287.7c10.2,10,15.8,23.7,15.5,37.9
	c0,14.9-5.2,27.5-15.5,37.8c-10.3,10.3-23,15.5-38,15.5c-15,0-27.6-5.2-37.9-15.5c-10.3-10.3-15.5-22.9-15.5-37.8
	c0-15,5.2-27.7,15.5-38c10.3-10.3,23-15.5,37.9-15.5C294.3,272.1,307,277.3,317.3,287.7z M305.6,352.6c7.1-7.2,10.7-16.2,10.7-26.9
	c0-10.8-3.6-19.9-10.7-27.1c-14.4-14.5-37.8-14.6-52.3-0.2c-0.1,0.1-0.1,0.1-0.2,0.2c-7.1,7.3-10.6,16.3-10.6,27.1
	c0,10.7,3.5,19.7,10.6,26.9C267.6,367,291.1,367,305.6,352.6z M391.1,376.7h-15.8l-44.5-102.4h18l34.3,80.3l34.3-80.3h18.2
	L391.1,376.7z M524.5,376.7h-76.3V274.3h76.1v14.8h-59.7V318h55.2v14.7h-55.2v29.2h59.9L524.5,376.7z M606.6,376.7l-36.5-40.8h-14.9
	v40.8h-16.4V274.3h48.2c10.5,0,19,2.8,25.4,8.5c6.5,5.7,9.7,13.1,9.7,22.4c0,8.8-2.9,15.9-8.8,21.5s-13.7,8.6-23.3,9.1l36.9,41
	H606.6z M587.1,321c5.6,0,10.1-1.5,13.6-4.4c3.4-2.8,5.4-7.1,5.2-11.5c0.1-4.5-1.8-8.8-5.2-11.6c-3.5-2.9-8-4.4-13.6-4.4h-31.8V321
	H587.1z M104,288.6c-10.2-9.5-24-14.3-41.2-14.3H27v14.8l0,0l18.8,36.4l0,0L27,361.9l0,0v14.8h35.8c17.2,0,31-4.8,41.2-14.3
	s15.4-21.8,15.4-36.9C119.4,310.4,114.2,298.1,104,288.6z M92,351.8c-7.2,6.7-17,10.1-29.2,10.1H43.9l18.8-36.4l-18.8-36.4h18.9
	c12.2,0,22,3.4,29.2,10.1c7.2,6.7,10.9,15.5,10.9,26.3C102.8,336.3,99.2,345.1,92,351.8z"/>
</svg>
