<svg id="Layer_1" data-name="Layer 1" xmlns="http://www.w3.org/2000/svg" viewBox="0 0 651.27 116.37"><title>Facebook wordmark logo - Brandlogos.net</title><path d="M597.21,406.25h21.67V371.19l30.24,35.06h26.52l-35.2-40.41,30.07-35H646.38L618.88,363.1V291.81l-21.67,2.84Zm-50-77.38c-24.06,0-40.76,16.18-40.76,39.64s16.71,39.64,40.76,39.64S588,392,588,368.52s-16.71-39.64-40.76-39.64Zm0,60.81c-11.15,0-18.78-8.62-18.78-21.17s7.64-21.17,18.78-21.17S566,356,566,368.52,558.38,389.69,547.23,389.69Zm-88.07-60.81c-24.06,0-40.76,16.18-40.76,39.64s16.71,39.64,40.76,39.64,40.76-16.18,40.76-39.64-16.71-39.64-40.76-39.64Zm0,60.81c-11.15,0-18.78-8.62-18.78-21.17s7.64-21.17,18.78-21.17,18.78,8.62,18.78,21.17S470.31,389.69,459.17,389.69Zm-82.94-60.81c-10,0-18.33,3.94-23.53,11.15V291.81L331,294.63v111.6h19.24l.38-11.65c5.13,8.69,14.32,13.58,25.61,13.58,20.57,0,35.63-16.71,35.63-39.64s-15-39.64-35.63-39.64Zm-5.13,60.81c-11.15,0-18.78-8.62-18.78-21.17s7.64-21.17,18.78-21.17,18.78,8.62,18.78,21.17S382.24,389.69,371.1,389.69Zm-83.53,1c-11.5,0-19.76-5.35-22.58-14.56h53.39a51.33,51.33,0,0,0,.88-8.4c0-24.27-13.58-38.83-36.4-38.83-23,0-39,16.18-39,39.64,0,23.77,16.71,39.64,41.5,39.64,12.84,0,25.32-4.3,33.13-11.43L310.72,383c-7.57,5.23-15,7.68-23.15,7.68Zm-4.84-44.94c10,0,16.42,6.09,16.42,15.51v.07H264.53c2.08-10,8.54-15.59,18.19-15.59ZM210,408.19a43.52,43.52,0,0,0,29.93-11.74l-8.47-14.25c-6,4.68-12.84,7.21-19.31,7.21-12,0-20-8.4-20-20.86s8-20.86,20-20.86a31,31,0,0,1,17.66,5.94l8.62-14.56c-7-6.3-17.76-10.17-28.45-10.17-23.53,0-40.17,16.42-40.17,39.64S186.42,408.19,210,408.19ZM141,330.81l-.38,11.74c-5.13-8.76-14.32-13.65-25.61-13.65-20.64,0-35.63,16.71-35.63,39.64s15.08,39.64,35.63,39.64c11.29,0,20.5-4.89,25.61-13.58l.38,11.65h19.24V330.81H141Zm-20.86,58.88c-11.15,0-18.78-8.62-18.78-21.17s7.64-21.17,18.78-21.17S139,356,139,368.52s-7.66,21.17-18.78,21.17ZM77.8,331H58.3v-6.44c0-9.64,3.77-13.34,13.56-13.34,3,0,5.49.07,6.9.21V294.84a65.89,65.89,0,0,0-13-1.48c-19.93,0-29.12,9.4-29.12,29.71v7.85H24.36v18.23H36.68v57.07H58.33v-57H74.46Z" transform="translate(-24.36 -291.81)" style="fill:#0766ff"/></svg>