<?xml version="1.0" encoding="utf-8"?>
<!-- Generator: Adobe Illustrator 19.2.1, SVG Export Plug-In . SVG Version: 6.00 Build 0)  -->
<svg version="1.1" id="layer" xmlns="http://www.w3.org/2000/svg" xmlns:xlink="http://www.w3.org/1999/xlink" x="0px" y="0px"
	 viewBox="0 0 652 652" style="enable-background:new 0 0 652 652;" xml:space="preserve">
<style type="text/css">
	.st0{fill:#00A9C5;}
	.st1{fill:#003056;}
</style>
<path class="st0" d="M120.5,360.4c-3.9,5.5-9.2,9.9-15.3,12.7c-27.5,12.4-59.9,0.1-72.3-27.5s-0.1-59.9,27.5-72.3
	c4-1.8,8.3-3.1,12.6-3.9c0.3,0,0.5,0.3,0.5,0.6c0,0.1-0.1,0.2-0.1,0.3c-8.9,4.5-28.4,20.8,16.3,41.4
	C131.3,330.9,128.1,349.5,120.5,360.4z"/>
<path class="st0" d="M135.9,329h0.2c0.2-1.7,0.2-3.4,0.2-5.3c0.1-22-13-41.9-33.3-50.5l-1.7-0.8c-10-3.6-15.5,1.1-15.5,1.1
	c-3.4,2-4.5,6.4-2.5,9.9c0.3,0.5,0.6,0.9,1,1.3c1.9,1.9,4.2,3.3,6.6,4.4c11,4.9,43.1,18.7,45,39.7h0.2L135.9,329z"/>
<path class="st1" d="M202.6,295.7c0.3,0.5,0.4,1,0.4,1.5c0,0.4,0,0.9-0.2,1.3l-0.8,1.1l-1.1,0.8c-0.9,0.4-1.9,0.4-2.8,0l-1.1-0.9
	l-0.9-0.9l-0.9-0.8c-4-2.2-8.9-1.8-12.5,0.9c-1.8,1.5-2.9,3.7-2.8,6.1c0,3.4,2.5,6.1,7.2,7.9l6.1,2.5c4,1.4,7.6,3.8,10.4,7
	c2.1,2.8,3.1,6.2,3,9.6c0.2,5-1.8,9.8-5.3,13.2c-3.5,3.5-8.3,5.4-13.2,5.3c-7.4,0.4-14.2-4-16.8-11c-0.3-0.8-0.5-1.6-0.6-2.5
	c0-0.5,0.2-0.9,0.4-1.3l0.8-1.1l1.1-0.8c1.2-0.5,2.6-0.3,3.6,0.6c0.7,0.5,1.1,1.3,1.3,2.1c0.3,1.2,0.8,2.2,1.5,3.2
	c3.9,4.9,11,5.8,15.9,1.9c0.3-0.2,0.6-0.5,0.9-0.8c2.1-2.1,3.1-5,3-7.9c0-1.2-0.2-2.3-0.6-3.4l-0.8-1.5l-0.9-1.5l-1.3-1.3l-1.5-1.1
	l-1.9-1.1l-2.3-0.9l-5.7-2.8c-7.9-3.4-11.7-8.1-11.7-14.6c0-4.1,1.8-8,4.9-10.6c3.4-2.9,7.8-4.5,12.3-4.4c4.7-0.1,9.2,1.8,12.3,5.3
	L202.6,295.7z M237.8,324.3l18.7,23.3l1.3,1.1c1,0.5,2.2,0.6,3.2,0.2l1.1-0.8l0.8-1.1c0.2-0.5,0.4-1,0.4-1.5c0-0.4,0-0.9-0.2-1.3
	l-0.8-1.1l-19.9-24c-0.5-0.6-0.8-1.4-0.8-2.3c0.1-0.8,0.5-1.6,1.1-2.1l0.6-0.6l18-18l0.6-0.9c0.2-0.4,0.2-0.9,0.2-1.3
	c0-0.4,0-0.9-0.2-1.3l-0.8-1.1l-1.1-0.8h-1.3c-0.9,0-1.8,0.4-2.5,1.1l-0.4,0.4l-20.6,21.2c-0.4,0.6-1.3,0.7-1.8,0.3
	c-0.2-0.1-0.3-0.3-0.4-0.5c-0.2-0.3-0.4-0.7-0.4-1.1v-18c0-0.5,0-1-0.2-1.5l-0.8-1.1l-1.1-0.8c-0.9-0.4-1.9-0.4-2.8,0l-1.1,0.8
	l-0.8,1.1c-0.1,0.4-0.2,0.9-0.2,1.3v51.6c0,0.4,0,0.9,0.2,1.3l0.8,1.1l1.1,0.8c0.9,0.4,1.9,0.4,2.8,0l1.1-0.8l0.8-1.1
	c0.2-0.4,0.2-0.9,0.2-1.3v-19.1c-0.1-0.9,0.1-1.7,0.6-2.5c0.4-0.6,1-0.9,1.7-0.9h0.2C236.2,323,237.2,323.4,237.8,324.3z M292.1,347
	c0.2-0.5,0.2-1,0.2-1.5v-51.3c0-0.5,0-1-0.2-1.5l-0.8-1.1l-1.1-0.8l-1.3-0.4h-1.3l-1.1,0.8l-0.8,1.1c-0.1,0.4-0.2,0.9-0.2,1.3v51.1
	c0,0.5,0.2,1,0.4,1.5l0.8,1.3l1.1,0.9c0.8,0.4,1.8,0.4,2.6,0l1.1-0.8L292.1,347z M399,292.7c-0.1,0.4-0.2,0.9-0.2,1.3v53.9
	c0,0.4,0.1,0.7,0.4,0.9l0.9,0.4h20.6l1.3-0.4l0.9-0.8l0.8-1.1c0.2-0.4,0.2-0.9,0.2-1.3c0-0.5,0-0.9-0.2-1.3l-0.8-1.1l-0.9-0.8
	l-1.3-0.4h-11.5c-0.9,0-1.7-0.3-2.3-0.9c-0.6-0.6-0.9-1.3-0.9-2.1v-45.4c0-0.5,0-1-0.2-1.5l-0.8-1.1l-1.1-0.8l-1.3-0.4h-1.3
	l-1.1,0.8L399,292.7z M449.5,347c0.1-0.4,0.2-0.9,0.2-1.3v-51.5c0-0.5,0-1-0.2-1.5l-0.8-1.1l-1.1-0.8l-1.3-0.4H445l-1.1,0.8
	l-0.8,1.1c-0.1,0.4-0.2,0.9-0.2,1.3v51.1c0,0.5,0.2,1,0.4,1.5l0.8,1.3l1.1,0.9c0.8,0.4,1.8,0.4,2.6,0l1.1-0.8L449.5,347z
	 M624.2,295.7c0.3,0.5,0.4,1,0.4,1.5c0,0.4,0,0.9-0.2,1.3l-0.8,1.1l-1.1,0.8c-0.9,0.4-1.9,0.4-2.8,0l-1.1-0.9l-0.9-0.9l-0.9-0.8
	c-4-2.2-8.9-1.8-12.5,0.9c-1.8,1.5-2.9,3.7-2.8,6.1c0,3.4,2.5,6.1,7.2,7.9l6.1,2.5c4,1.4,7.6,3.8,10.4,7c2.2,2.8,3.3,6.3,3.2,9.8
	c0.1,4.9-1.8,9.6-5.3,13.1c-3.5,3.5-8.3,5.4-13.2,5.3c-7.4,0.4-14.2-4-16.8-11c-0.3-0.7-0.5-1.5-0.6-2.3c0-0.5,0.2-0.9,0.4-1.3
	l0.8-1.1l1.1-0.8c1.2-0.5,2.6-0.3,3.6,0.6c0.7,0.5,1.1,1.3,1.3,2.1c0.3,1.2,0.8,2.2,1.5,3.2c3.9,4.9,11,5.8,15.9,1.9
	c0.3-0.2,0.6-0.5,0.9-0.8c2.1-2.1,3.1-5,3-7.9c0-1.2-0.2-2.3-0.6-3.4l-0.8-1.5l-0.9-1.5l-1.3-1.3l-1.5-1.1l-1.9-1.1l-2.3-0.9
	l-5.9-2.5c-7.9-3.4-11.7-8.1-11.7-14.6c0-4.1,1.8-8,4.9-10.6c3.4-2.9,7.8-4.5,12.3-4.4c4.7-0.1,9.2,1.8,12.3,5.3L624.2,295.7z
	 M505.2,327.1l0.6-0.8c0.1-0.2,0.2-0.5,0.2-0.8v-31.8c0-0.5,0.2-0.9,0.4-1.3l0.8-1.1l1.1-0.8c0.9-0.4,1.9-0.4,2.8,0l1.1,0.8l0.8,1.1
	c0.2,0.5,0.2,1,0.2,1.5v52.2c0,0.4,0,0.8,0,1.1v0.6c-0.5,1.1-1.7,1.5-2.7,1.1c-0.3-0.1-0.6-0.4-0.9-0.7l-25.2-35.9h-0.2L483,312
	c-0.8,0-1.4,0.6-1.5,1.3v32.2c0,0.4,0,0.9-0.2,1.3l-0.8,1.1l-1.1,0.8c-0.9,0.4-1.9,0.4-2.8,0l-1.1-0.8l-0.8-1.1
	c-0.2-0.4-0.3-0.9-0.4-1.3v-53.2c0-1.1,1-2.1,2.1-2c0.7,0,1.3,0.3,1.6,0.9l24.8,35C502.9,326.2,503.8,327.9,505.2,327.1z
	 M314.1,345.1v0.4c0,0.5,0.2,0.9,0.4,1.3l0.8,1.1l1.1,0.8c1.2,0.5,2.6,0.4,3.6-0.4c0.6-0.5,1.1-1.1,1.3-1.9l5.5-30.6v-0.9l0.6-0.8
	c0.4-0.2,0.9-0.2,1.3,0c0.3,0.3,0.6,0.7,0.8,1.1l14,31.4v0.4c0.3,0.9,1.3,1.4,2.2,1c0.5-0.2,0.9-0.6,1-1l14.2-31.2l0.6-1.1l0.9-0.8
	c0.5-0.1,1,0,1.3,0.4c0.2,0.3,0.4,0.6,0.4,0.9l5.5,30.8c0.1,0.9,0.5,1.7,1.1,2.3c1,0.9,2.5,1.1,3.8,0.6l1.1-0.8l0.8-1.1
	c0.2-0.7,0.3-1.4,0.2-2.1l-9.3-53c0.1-0.6-0.4-1.2-1-1.2c-0.6-0.1-1.2,0.4-1.2,1l0,0l-18.2,41.4c-0.2,0.6-0.9,1-1.5,0.9h-0.4
	c-0.3-0.2-0.6-0.4-0.8-0.8l-17.6-41.4c-0.3-0.6-1-0.8-1.5-0.5c-0.3,0.1-0.5,0.4-0.5,0.7L314.1,345.1z M545.3,313.3l0.4,0.4
	c0.6,0.2,1.3,0.1,1.7-0.4l20.8-21.4l0.4-0.4c0.6-0.7,1.5-1.1,2.5-1.1h1.3l1.1,0.8l0.8,1.1c0.2,0.4,0.2,0.9,0.2,1.3
	c0,0.4,0,0.9-0.2,1.3l-0.6,0.9l-18,18l-0.6,0.6c-0.6,0.5-1,1.3-1.1,2.1c0,0.8,0.2,1.6,0.8,2.3l19.9,23.8l0.8,1.1
	c0.1,0.4,0.2,0.9,0.2,1.3c0,0.5-0.1,1-0.4,1.5l-0.8,1.1l-1.1,0.8c-1,0.4-2.2,0.3-3.2-0.2l-1.3-1.1l-18.9-22.9l-1.1-0.9l-1.3-0.4
	h-0.2c-0.7,0-1.3,0.4-1.7,0.9c-0.5,0.7-0.7,1.6-0.6,2.5v19.3c0,0.5,0,0.9-0.2,1.3l-0.8,1.1l-1.1,0.8c-0.9,0.4-1.9,0.4-2.8,0
	l-1.1-0.8l-0.9-1.1c-0.1-0.4-0.2-0.9-0.2-1.3V294c0-0.4,0-0.9,0.2-1.3l0.8-1.1l1.1-0.8c0.9-0.4,1.9-0.4,2.8,0l1.1,0.8l0.8,1.1
	c0.2,0.5,0.2,1,0.2,1.5v18c0,0.4,0.2,0.8,0.4,1.1H545.3z"/>
</svg>
